<svg xmlns="http://www.w3.org/2000/svg" width="15" height="11"><path d="M13.929 9.75a.269.269 0 01-.268.25H1.339a.269.269 0 01-.268-.25v-6a4.549 4.549 0 00.578.52c1.2.85 2.4 1.73 3.566 2.64A3.987 3.987 0 007.492 8h.016a3.987 3.987 0 002.277-1.09 96.714 96.714 0 013.566-2.64 4.549 4.549 0 00.578-.52v6zm0-8.21a3.029 3.029 0 01-1.231 1.93c-1.122.82-2.243 1.65-3.357 2.47A4.152 4.152 0 017.508 7h-.016a4.16 4.16 0 01-1.834-1.06c-1.113-.82-2.235-1.65-3.356-2.47a2.774 2.774 0 01-1.231-2.22.269.269 0 01.268-.25h12.322c.318 0 .268.34.268.54zM15 1.25A1.3 1.3 0 0013.661 0H1.339A1.3 1.3 0 000 1.25v8.5A1.3 1.3 0 001.339 11h12.322A1.3 1.3 0 0015 9.75v-8.5z" fill="#555" fill-rule="evenodd"/></svg>