<svg xmlns="http://www.w3.org/2000/svg" width="15.969" height="15.16"><path data-name="Google Plus Logo" d="M.835 3.78a3.007 3.007 0 001.322 2.76 3.834 3.834 0 001.986.51h.248a2.386 2.386 0 00.526 1.71h-.03c-1.15 0-4.9.24-4.9 3.21 0 3.03 3.445 3.19 4.136 3.19h.227a6.608 6.608 0 002.655-.56 3.414 3.414 0 002.081-3.34A4.082 4.082 0 007.24 8.17a1.985 1.985 0 01-.887-1.09 1.448 1.448 0 01.68-.93 3.272 3.272 0 001.194-2.71c0-1.26-.169-2.1-1.207-2.63A2.964 2.964 0 017.7.69C8.263.61 9.086.53 9.086.09V0h-4.1C4.942 0 .835.15.835 3.78zm6.622 7.76c.078 1.21-1 2.11-2.606 2.22-1.637.12-2.984-.6-3.063-1.81a1.958 1.958 0 01.745-1.6 3.491 3.491 0 012.033-.8 2.555 2.555 0 01.276-.01 2.348 2.348 0 012.615 2zM6.386 2.95c.4 1.37-.206 2.8-1.174 3.06a1.314 1.314 0 01-.343.04 2.511 2.511 0 01-2.092-2.06 2.88 2.88 0 01.042-1.82 1.6 1.6 0 011.037-1.05 1.323 1.323 0 01.343-.05c1.071 0 1.76.43 2.187 1.88zm6.911 2.98V3.34h-1.7v2.59H8.921v1.63h2.676v2.59h1.7V7.56h2.677V5.93h-2.677z" fill="#fff" fill-rule="evenodd"/></svg>