<svg xmlns="http://www.w3.org/2000/svg" width="43" height="40"><path d="M18.735 11.22a103.607 103.607 0 014.755 11.77c-.491.03-.982.06-1.473.06-2.559 0-5.117-.08-7.675-.11zM0 40a28.379 28.379 0 004.858-.36 8.948 8.948 0 011.24-.21c3 0 6.022.52 9.019.52a6.52 6.52 0 00.052-.71c0-.52 0-1.01-.026-1.51-1.473-.2-5.272-.28-5.272-2.29 0-.99 2.61-7.81 3.282-9.32l11.629.05c.413 1.07 3.747 8.8 3.747 9.74 0 .96-1.37 1.15-2.067 1.3l-3.386.73a18.041 18.041 0 00-.1 2.03c3.385-.1 6.77-.39 10.156-.39 3.281 0 6.563.42 9.845.42 0-.23.026-.44.026-.68a9.653 9.653 0 00-.155-1.48c-1.215-.47-3.592-.63-4.445-1.3a4.6 4.6 0 01-.9-1.49c-1.292-2.65-2.2-5.44-3.36-8.15-1.964-4.58-3.747-9.24-5.685-13.85l-5.3-12.5a4.77 4.77 0 00-.284-.55h-3.308L12.33 18.85 6.2 34.9c-1.085 2.81-3.721 2.29-6.15 3.04z" fill="#fff" fill-rule="evenodd"/></svg>