<svg xmlns="http://www.w3.org/2000/svg" width="52.812" height="39.76"><path d="M16.506 32.6a.927.927 0 000-1.33L5.16 19.88 16.505 8.49a.939.939 0 000-1.34l-1.444-1.44a.916.916 0 00-1.328 0L.281 19.21a.939.939 0 000 1.34l13.452 13.5a.916.916 0 001.328 0zm17.06-30.92a.936.936 0 00-.635-1.16l-1.79-.5a.926.926 0 00-1.126.64L19.248 38.08a.94.94 0 00.635 1.16l1.79.49a.911.911 0 001.126-.63zm18.966 18.87a.939.939 0 000-1.34L39.08 5.71a.916.916 0 00-1.328 0l-1.444 1.44a.939.939 0 000 1.34l11.344 11.39-11.346 11.39a.927.927 0 000 1.33l1.444 1.45a.916.916 0 001.328 0z" fill="#c0301c" fill-rule="evenodd"/></svg>