<svg xmlns="http://www.w3.org/2000/svg" width="15.968" height="12.63"><path data-name="Twitter Logo Silhouette" d="M15.531.23a6.511 6.511 0 01-2.084.78A3.319 3.319 0 0011.054 0a3.237 3.237 0 00-3.28 3.19 3.181 3.181 0 00.085.73A9.433 9.433 0 011.099.58a3.138 3.138 0 001.015 4.26 3.368 3.368 0 01-1.485-.4v.04a3.212 3.212 0 002.63 3.13 3.5 3.5 0 01-.864.11 3.159 3.159 0 01-.618-.06A3.28 3.28 0 004.84 9.88 6.9 6.9 0 01-.015 11.2a9.518 9.518 0 005.028 1.43 9.133 9.133 0 009.331-9.07l-.011-.42a6.326 6.326 0 001.639-1.64 6.917 6.917 0 01-1.883.5A3.233 3.233 0 0015.531.23z" fill="#fff" fill-rule="evenodd"/></svg>